<?xml version="1.0" ?><!DOCTYPE svg  PUBLIC '-//W3C//DTD SVG 1.1//EN'  'http://www.w3.org/Graphics/SVG/1.1/DTD/svg11.dtd'><svg enable-background="new 0 0 164 164" height="164px" id="Layer_1" version="1.1" viewBox="0 0 164 164" width="164px" xml:space="preserve" xmlns="http://www.w3.org/2000/svg" xmlns:xlink="http://www.w3.org/1999/xlink"><g><path clip-rule="evenodd" d="M154.333,67.927c7.927,5.163,12.938,11.963,6.101,19.632   c-0.872-1.527-1.891-2.909-3.303-4.084c1.45-4.63-1.396-8.342-5.545-11.3c-5.005-3.569-13.861-6.327-21.596-8.03   c-0.45,0.692-0.902,1.38-1.356,2.061c-3.886,5.828-7.682,11.089-11.514,15.953c3.828,4.858,7.623,10.118,11.514,15.952   c0.469,0.703,0.937,1.414,1.4,2.129c4.688-1.226,9.491-2.793,13.698-4.72c0.258,0.611,0.618,1.16,1.094,1.719   c-4.586,1.83-9.44,3.301-13.883,4.415c9.162,14.4,16.566,30.564,8.596,38.042c-8.466,7.942-24.797,0.701-37.354-7.147   c-3.819,16.152-10.047,31.836-20.656,31.443c-11.593-0.428-17.935-17.106-21.193-31.546c-7.441,4.567-16.531,9.103-24,10.316   c-14.728,2.392-16.938-6.95-14.974-17.579c1.187-6.431,5.015-14.534,9.191-21.5C14.843,100.313-0.038,94.6,0.028,84.317   C0.104,72.582,16.966,65.71,31.413,62.044c-0.315-0.508-0.628-1.022-0.94-1.544c1.63-0.498,3.012-1.12,4.393-1.992   c0.484,0.817,0.969,1.614,1.451,2.386c3.813-0.824,7.264-1.412,9.928-1.8c3.637-0.53,7.163-0.998,10.61-1.402   c0.55-5.489,1.281-11.176,2.203-17.192c0.318-2.077,0.753-4.355,1.294-6.729c-8.01-4.832-17.036-8.886-24.061-8.61   c-9.301,0.364-10.907,6.325-9.958,13.037c0.173,1.221,0.477,2.534,0.884,3.904c-1.655,0.456-3.082,1.037-4.529,2.054   c-0.58-1.748-1.034-3.436-1.326-5.022c-1.963-10.63,0.247-19.972,14.974-17.58c7.605,1.235,16.89,5.915,24.405,10.565   c2-8.201,5.188-17.218,9.114-22.86c4.482-6.442,10.03-10.842,16.048-8.119C84.225,2.823,83.106,4.423,82.3,6.5   c-3.193,0.244-5.943,2.558-8.282,5.635c-3.947,5.192-7.113,14.745-9.027,22.731c1.27,0.856,2.452,1.688,3.521,2.468   c4.627,3.38,8.93,6.62,12.978,9.809c2.546-2.112,5.183-4.237,7.929-6.396c2.822-2.219,6.864-5.205,11.498-8.175   c-1.332-5.329-3.089-10.795-5.172-15.118c0.685-0.326,1.256-0.694,1.806-1.197c2.035,4.873,3.646,10.325,4.839,15.385   c12.528-7.8,28.729-14.921,37.15-7.021c7.453,6.993,1.462,21.583-6.84,35.222C140.544,61.617,148.919,64.401,154.333,67.927   L154.333,67.927z M101.092,131.857c-4.708-3.007-8.816-6.04-11.674-8.287c-2.736-2.151-5.362-4.269-7.9-6.372   c-0.421,0.332-0.845,0.664-1.271,0.997c-0.255-0.342-0.521-0.726-0.816-1.036c0.355-0.271,0.709-0.543,1.062-0.815   c-3.128-2.615-6.121-5.214-9.012-7.837c-3.491-0.064-7.017-0.229-10.622-0.497c0.352,3.07,0.77,6.162,1.255,9.289   c0.459,2.959,1.058,6.807,1.91,10.949c0.247-0.161,0.492-0.322,0.735-0.483c0.255,0.418,0.573,0.836,0.932,1.212   c-0.43,0.295-0.871,0.593-1.322,0.893c2.716,12.424,7.78,26.753,18.159,27.736C92.1,158.512,97.669,145.724,101.092,131.857   L101.092,131.857z M56.765,107.663c-6.032-0.571-12.326-1.432-19.08-2.604c-0.711-0.123-1.425-0.252-2.14-0.383   c-4.145,6.825-8.34,15.278-9.212,21.442c-0.949,6.712,0.657,12.672,9.958,13.036c6.875,0.271,15.766-3.663,23.68-8.378   c-1.128-5.316-1.838-10.221-2.242-13.749C57.362,113.827,57.041,110.713,56.765,107.663L56.765,107.663z M61.226,57.209   c3.262-0.338,6.465-0.617,9.637-0.836c3.083-2.814,6.278-5.598,9.63-8.4c-4.051-3.123-8.339-6.26-12.924-9.484   c-0.95-0.668-1.937-1.343-2.951-2.016c-0.339,1.508-0.629,2.942-0.867,4.257C62.72,46.42,61.88,51.892,61.226,57.209L61.226,57.209   z M60.764,61.23c-0.194,1.823-0.366,3.629-0.516,5.422c1.984-2.042,3.997-4.04,6.053-6.012   C64.457,60.812,62.612,61.008,60.764,61.23L60.764,61.23z M59.81,72.959c-0.338,6.155-0.405,12.174-0.206,18.171   c5.28,5.832,10.715,11.195,16.464,16.263c5.438-0.04,10.842-0.324,16.354-0.837c5.091-4.472,9.825-9.068,14.361-13.996   c0.313-7.025,0.213-13.954-0.261-21.085c-3.705-4.009-7.545-7.8-11.604-11.485c-7.666-0.346-15.075-0.288-22.435,0.17   C68.115,64.199,63.915,68.439,59.81,72.959L59.81,72.959z M59.903,97.311c0.202,3.174,0.478,6.352,0.827,9.552   c3.202,0.243,6.352,0.401,9.475,0.479C66.646,104.07,63.234,100.752,59.903,97.311L59.903,97.311z M102.156,127.209   c0.039-0.183,0.078-0.366,0.116-0.549c1.506-7.194,2.629-13.941,3.397-20.459c-4.367,0.611-8.583,1.11-12.72,1.487   c-2.631,2.323-5.36,4.625-8.214,6.938c2.579,2.04,5.228,4.042,7.959,6.019C95.197,122.456,98.476,124.826,102.156,127.209   L102.156,127.209z M105.817,104.911c0.398-3.577,0.689-7.089,0.879-10.57c-3.905,4.191-7.951,8.146-12.257,12.02   C98.162,105.979,101.94,105.494,105.817,104.911L105.817,104.911z M106.396,69.667c-0.22-2.94-0.502-5.918-0.843-8.956   c-2.986-0.268-5.923-0.479-8.821-0.633C100.085,63.181,103.286,66.351,106.396,69.667L106.396,69.667z M105.031,56.376   c-0.605-4.728-1.345-9.614-2.21-14.734c-0.237-1.405-0.518-2.891-0.838-4.422c-3.61,2.345-6.825,4.67-9.288,6.452   c-2.741,1.984-5.399,3.993-7.987,6.04c2.517,2.037,4.936,4.063,7.274,6.103C96.247,55.889,100.573,56.075,105.031,56.376   L105.031,56.376z M103.399,36.313c0.366,1.858,0.668,3.607,0.905,5.188c0.789,5.242,1.469,10.2,2.026,14.967   c5.254,0.38,10.699,0.918,16.446,1.621c2.623,0.32,5.571,0.816,8.631,1.471c6.922-11.715,11.355-23.835,4.293-29.736   C127.746,23.177,114.111,29.546,103.399,36.313L103.399,36.313z M106.812,60.828c0.36,3.487,0.65,6.881,0.863,10.219   c2.966,3.229,5.854,6.604,8.719,10.197c3.765-4.797,7.467-9.957,11.208-15.616c0.383-0.579,0.763-1.163,1.14-1.749   c-2.168-0.453-4.224-0.819-6.05-1.093C117.211,61.965,111.937,61.313,106.812,60.828L106.812,60.828z M107.784,72.853   c0.348,6.225,0.424,12.277,0.192,18.399c2.617-2.899,5.171-5.917,7.694-9.093C113.086,78.905,110.468,75.817,107.784,72.853   L107.784,72.853z M107.9,93.036c-0.183,3.842-0.486,7.722-0.922,11.698c5.121-0.791,10.42-1.75,15.993-2.868   c1.877-0.376,3.844-0.813,5.843-1.314c-0.401-0.624-0.806-1.245-1.213-1.861c-3.741-5.659-7.442-10.818-11.207-15.615   C113.603,86.579,110.787,89.877,107.9,93.036L107.9,93.036z M106.832,106.035c-0.767,6.61-1.894,13.504-3.421,20.951   c-0.063,0.302-0.125,0.604-0.188,0.905c10.739,6.809,24.479,13.285,32.479,6.603c7.628-6.372,1.847-20-5.996-32.536   c-2.358,0.566-4.576,1.028-6.547,1.387C117.418,104.389,112.016,105.29,106.832,106.035L106.832,106.035z M56.663,106.512   c-0.404-4.641-0.699-9.137-0.88-13.566c-2.208-2.397-4.392-4.865-6.573-7.428c-3.265,4.146-6.511,8.526-9.777,13.187   c-1.012,1.444-2.107,3.098-3.219,4.885c0.588,0.11,1.176,0.219,1.763,0.323C44.526,105.076,50.701,105.937,56.663,106.512   L56.663,106.512z M55.602,86.587c-0.047-2.965-0.041-5.917,0.021-8.881c-1.247,1.455-2.486,2.938-3.722,4.453   C53.129,83.665,54.363,85.141,55.602,86.587L55.602,86.587z M55.841,71.308c0.148-3.133,0.359-6.297,0.633-9.521   c-3.427,0.48-6.875,1.046-10.367,1.698c-2.034,0.38-4.492,0.838-7.174,1.409c0.168,0.245,0.334,0.484,0.499,0.718   c3.267,4.661,6.513,9.041,9.778,13.188C51.41,76.215,53.614,73.726,55.841,71.308L55.841,71.308z M83.72,113.817   c2.485-1.976,4.88-3.954,7.2-5.954c-4.57,0.375-9.057,0.598-13.561,0.658C79.435,110.32,81.553,112.083,83.72,113.817   L83.72,113.817z M46.398,82.158c-3.436-4.168-6.885-8.595-10.43-13.373c-0.642-0.865-1.3-1.789-1.964-2.761   C21.579,69.1,7.116,74.604,6.443,85.119c-0.592,9.25,11.42,14.394,24.795,17.438c1.586-2.575,3.204-4.968,4.73-7.025   C39.513,90.754,42.962,86.327,46.398,82.158L46.398,82.158z M90.146,55.79c-2.078-1.774-4.218-3.533-6.428-5.291   c-2.255,1.806-4.458,3.642-6.615,5.518C81.448,55.825,85.77,55.748,90.146,55.79z" fill="#1A1A1A" fill-rule="evenodd"/><path clip-rule="evenodd" d="M152.484,84.18c4.32,0.172,7.682,3.82,7.51,8.149   s-3.813,7.699-8.132,7.528c-4.319-0.172-7.682-3.82-7.51-8.149S148.165,84.008,152.484,84.18L152.484,84.18z M99.054,11.662   c-1.151,4.167-5.47,6.609-9.646,5.456c-4.177-1.153-6.629-5.466-5.478-9.633c1.151-4.167,5.469-6.61,9.646-5.456   C97.752,3.182,100.205,7.495,99.054,11.662L99.054,11.662z M99.894,82.823c0,9.399-7.637,17.02-17.057,17.02   c-9.421,0-17.058-7.62-17.058-17.02s7.637-17.02,17.058-17.02C92.257,65.804,99.894,73.424,99.894,82.823L99.894,82.823z    M32.944,57.772c-3.588,2.412-8.456,1.453-10.873-2.143c-2.417-3.595-1.469-8.465,2.118-10.877   c3.587-2.412,8.455-1.453,10.873,2.143C37.479,50.49,36.531,55.36,32.944,57.772L32.944,57.772z M80.015,124.689   c-1.03,4.198-5.276,6.765-9.483,5.732c-4.208-1.032-6.784-5.271-5.754-9.471c1.03-4.198,5.276-6.766,9.484-5.732   C78.468,116.25,81.044,120.49,80.015,124.689z" fill="#2A95B0" fill-rule="evenodd"/></g></svg>