<?xml version="1.0" ?><svg style="enable-background:new 0 0 710.976 700.322;" version="1.1" viewBox="0 0 710.976 700.322" xml:space="preserve" xmlns="http://www.w3.org/2000/svg" xmlns:xlink="http://www.w3.org/1999/xlink"><g id="_x31_9-Gear"><path d="M364.041,567.978c-12.181,0-22.057-9.875-22.057-22.057V408.369   c0-12.182,9.876-22.057,22.057-22.057c12.181,0,22.057,9.875,22.057,22.057V545.92   C386.098,558.103,376.222,567.978,364.041,567.978z" style="fill:#4CAE50;"/><path d="M509.886,284.194c-0.188-11.982-9.903-21.627-21.885-21.718   c-9.338-0.027-92.101,0.479-132.996,41.368c-31.293,31.293-31.293,82.214-0.005,113.507c15.159,15.164,35.31,23.517,56.754,23.517   h0.005c21.438,0,41.589-8.347,56.748-23.506C510.074,375.794,510.026,293.445,509.886,284.194z" style="fill:#CCDB39;"/><path d="M507.516,274.753c-3.807,29.86-13.64,70.367-39.01,95.736   c-15.159,15.159-35.31,23.506-56.748,23.506h-0.005c-21.444,0-41.595-8.352-56.754-23.517   c-9.623-9.623-16.263-21.115-19.965-33.318c-8.333,27.459-1.696,58.525,19.965,80.19c15.159,15.164,35.31,23.517,56.754,23.517   h0.005c21.438,0,41.589-8.347,56.748-23.506c41.568-41.568,41.519-123.917,41.379-133.168   C509.832,280.79,508.941,277.613,507.516,274.753z" style="fill:#B1B72C;"/><path d="M355.979,344.781c-40.905-40.905-123.615-41.401-133.001-41.368   c-11.982,0.097-21.697,9.742-21.885,21.718c-0.14,9.257-0.183,91.601,41.385,133.174c15.644,15.638,36.193,23.463,56.743,23.463   c20.555,0,41.115-7.825,56.759-23.474C387.278,426.996,387.272,376.074,355.979,344.781z" style="fill:#8AC24A;"/><path d="M361.494,418.773c-15.644,15.649-36.204,23.474-56.759,23.474c-20.55,0-41.099-7.825-56.743-23.463   c-29.376-29.376-37.938-79.016-40.404-108.935c-3.934,3.92-6.4,9.311-6.494,15.283c-0.14,9.257-0.183,91.601,41.385,133.174   c15.644,15.638,36.193,23.463,56.743,23.463c20.555,0,41.115-7.825,56.759-23.474c17.911-17.911,25.523-42.246,22.932-65.655   C375,402.149,369.208,411.061,361.494,418.773z" style="fill:#74A338;"/><path d="M699.948,409.747l-38.003-21.939c1.562-12.623,2.348-25.229,2.348-37.647   s-0.786-25.025-2.348-37.647l38.003-21.939c5.067-2.924,8.762-7.738,10.275-13.393c1.519-5.649,0.722-11.67-2.203-16.737   L609.451,89.716c-2.924-5.067-7.744-8.762-13.393-10.275c-5.66-1.519-11.669-0.722-16.737,2.203l-37.981,21.928   c-20.205-15.272-42.047-27.916-65.224-37.755V22.057C476.116,9.876,466.239,0,454.058,0H256.92   c-12.181,0-22.057,9.876-22.057,22.057v43.754c-23.172,9.839-45.014,22.483-65.224,37.76l-37.981-21.928   c-5.067-2.924-11.093-3.721-16.737-2.203c-5.649,1.513-10.469,5.207-13.393,10.275L2.959,260.445   c-6.091,10.549-2.477,24.039,8.072,30.13l37.997,21.939c-1.556,12.612-2.343,25.218-2.343,37.647   c0,12.418,0.786,25.025,2.348,37.647l-38.003,21.939c-5.067,2.924-8.762,7.738-10.275,13.393   c-1.519,5.649-0.722,11.67,2.203,16.737l98.569,170.729c2.924,5.067,7.744,8.762,13.393,10.275   c5.644,1.519,11.67,0.722,16.737-2.202l37.981-21.928c20.21,15.278,42.052,27.922,65.224,37.76v43.754   c0,12.181,9.876,22.057,22.057,22.057h197.138c12.181,0,22.057-9.876,22.057-22.057v-43.759   c23.177-9.839,45.019-22.483,65.224-37.755l37.981,21.928c5.067,2.924,11.077,3.721,16.737,2.202   c5.649-1.513,10.469-5.207,13.393-10.275l98.569-170.729c2.924-5.067,3.721-11.088,2.203-16.737   C708.709,417.486,705.015,412.671,699.948,409.747z M542.977,350.161c0,103.383-84.105,187.488-187.488,187.488   s-187.488-84.105-187.488-187.488s84.105-187.488,187.488-187.488S542.977,246.778,542.977,350.161z" style="fill:#283592;"/><path d="M699.948,409.747l-38.003-21.939c1.562-12.623,2.348-25.229,2.348-37.647   s-0.786-25.025-2.348-37.647l38.003-21.939c5.067-2.924,8.762-7.738,10.275-13.393c1.519-5.649,0.722-11.67-2.203-16.737   L609.451,89.716c-2.924-5.067-7.744-8.762-13.393-10.275c-5.66-1.519-11.669-0.722-16.737,2.203l-26.392,15.234l94.433,163.567   c2.924,5.067,3.721,11.088,2.203,16.737c-1.513,5.654-5.207,10.469-10.275,13.393l-38.003,21.939   c1.562,12.623,2.348,25.229,2.348,37.647s-0.786,25.025-2.348,37.647l38.003,21.939c5.067,2.924,8.762,7.738,10.275,13.393   c1.519,5.649,0.722,11.67-2.203,16.737l-94.433,163.567l26.392,15.234c5.067,2.924,11.077,3.721,16.737,2.202   c5.649-1.513,10.469-5.207,13.393-10.275l98.569-170.729c2.924-5.067,3.721-11.088,2.203-16.737   C708.709,417.486,705.015,412.671,699.948,409.747z" style="fill:#1A237E;"/></g><g id="Layer_1"/></svg>